<svg width="12" height="12" viewBox="0 0 12 12" fill="none" xmlns="http://www.w3.org/2000/svg">
    <path d="M1.5999 11.5999C1.2699 11.5999 0.987402 11.4824 0.752402 11.2474C0.517402 11.0124 0.399902 10.7299 0.399902 10.3999V1.5999C0.399902 1.2699 0.517402 0.987403 0.752402 0.752403C0.987402 0.517403 1.2699 0.399902 1.5999 0.399902H5.9999V1.5999H1.5999V10.3999H10.3999V5.9999H11.5999V10.3999C11.5999 10.7299 11.4824 11.0124 11.2474 11.2474C11.0124 11.4824 10.7299 11.5999 10.3999 11.5999H1.5999ZM4.4499 8.3999L3.5999 7.5499L9.5499 1.5999H7.5999V0.399902H11.5999V4.3999H10.3999V2.4499L4.4499 8.3999Z" fill="#333333" fill-opacity="0.6"/>
</svg>
