<svg width="21" height="21" viewBox="0 0 21 21" fill="none" xmlns="http://www.w3.org/2000/svg">
<path d="M3.65005 8.02498L5.60005 8.84998C5.83338 8.38332 6.07505 7.93332 6.32505 7.49998C6.57505 7.06665 6.85005 6.63332 7.15005 6.19998L5.75005 5.92498L3.65005 8.02498ZM7.20005 10.1L10.05 12.925C10.75 12.6583 11.5 12.25 12.3 11.7C13.1 11.15 13.85 10.525 14.55 9.82498C15.7167 8.65832 16.6292 7.36248 17.2875 5.93748C17.9459 4.51248 18.2334 3.19998 18.15 1.99998C16.95 1.91665 15.6334 2.20415 14.2 2.86248C12.7667 3.52082 11.4667 4.43332 10.3 5.59998C9.60005 6.29998 8.97505 7.04998 8.42505 7.84998C7.87505 8.64998 7.46672 9.39998 7.20005 10.1ZM11.65 8.47498C11.2667 8.09165 11.075 7.62082 11.075 7.06248C11.075 6.50415 11.2667 6.03332 11.65 5.64998C12.0334 5.26665 12.5084 5.07498 13.075 5.07498C13.6417 5.07498 14.1167 5.26665 14.5 5.64998C14.8834 6.03332 15.075 6.50415 15.075 7.06248C15.075 7.62082 14.8834 8.09165 14.5 8.47498C14.1167 8.85832 13.6417 9.04998 13.075 9.04998C12.5084 9.04998 12.0334 8.85832 11.65 8.47498ZM12.125 16.5L14.225 14.4L13.95 13C13.5167 13.3 13.0834 13.5708 12.65 13.8125C12.2167 14.0541 11.7667 14.2916 11.3 14.525L12.125 16.5ZM19.95 0.174983C20.2667 2.19165 20.0709 4.15415 19.3625 6.06248C18.6542 7.97082 17.4334 9.79165 15.7 11.525L16.2 14C16.2667 14.3333 16.25 14.6583 16.15 14.975C16.05 15.2916 15.8834 15.5667 15.65 15.8L11.45 20L9.35005 15.075L5.07505 10.8L0.150049 8.69998L4.32505 4.49998C4.55838 4.26665 4.83755 4.09998 5.16255 3.99998C5.48755 3.89998 5.81672 3.88332 6.15005 3.94998L8.62505 4.44998C10.3584 2.71665 12.175 1.49165 14.075 0.774983C15.975 0.0583168 17.9334 -0.141683 19.95 0.174983ZM1.92505 13.975C2.50838 13.3917 3.22088 13.0958 4.06255 13.0875C4.90422 13.0792 5.61672 13.3666 6.20005 13.95C6.78338 14.5333 7.07088 15.2458 7.06255 16.0875C7.05422 16.9291 6.75838 17.6416 6.17505 18.225C5.75838 18.6416 5.06255 19 4.08755 19.3C3.11255 19.6 1.76672 19.8666 0.0500488 20.1C0.283382 18.3833 0.550049 17.0375 0.850049 16.0625C1.15005 15.0875 1.50838 14.3917 1.92505 13.975ZM3.35005 15.375C3.18338 15.5416 3.01672 15.8458 2.85005 16.2875C2.68338 16.7292 2.56672 17.175 2.50005 17.625C2.95005 17.5583 3.39588 17.4458 3.83755 17.2875C4.27922 17.1292 4.58338 16.9667 4.75005 16.8C4.95005 16.6 5.05838 16.3583 5.07505 16.075C5.09172 15.7916 5.00005 15.55 4.80005 15.35C4.60005 15.15 4.35838 15.0542 4.07505 15.0625C3.79172 15.0708 3.55005 15.175 3.35005 15.375Z" fill="#3174EE"/>
</svg>
